<svg xmlns="http://www.w3.org/2000/svg" xmlns:xlink="http://www.w3.org/1999/xlink" width="500" zoomAndPan="magnify" viewBox="0 0 375 374.999991" height="500" preserveAspectRatio="xMidYMid meet" version="1.0"><defs><g/><clipPath id="d805a8cbc9"><path d="M 1.882812 1.882812 L 373.132812 1.882812 L 373.132812 373.132812 L 1.882812 373.132812 Z M 1.882812 1.882812 " clip-rule="nonzero"/></clipPath><clipPath id="6b3be77629"><path d="M 70 149 L 297 149 L 297 293.070312 L 70 293.070312 Z M 70 149 " clip-rule="nonzero"/></clipPath></defs><g clip-path="url(#d805a8cbc9)"><path fill="#b8d1c1" d="M 373.132812 187.507812 C 373.132812 190.546875 373.058594 193.582031 372.910156 196.617188 C 372.761719 199.648438 372.535156 202.679688 372.238281 205.703125 C 371.941406 208.726562 371.570312 211.738281 371.125 214.746094 C 370.675781 217.75 370.160156 220.742188 369.566406 223.722656 C 368.972656 226.699219 368.308594 229.664062 367.570312 232.609375 C 366.832031 235.558594 366.019531 238.484375 365.140625 241.390625 C 364.257812 244.296875 363.304688 247.183594 362.28125 250.042969 C 361.257812 252.902344 360.164062 255.738281 359.003906 258.542969 C 357.839844 261.351562 356.609375 264.125 355.308594 266.871094 C 354.011719 269.617188 352.644531 272.332031 351.214844 275.011719 C 349.78125 277.691406 348.285156 280.332031 346.722656 282.9375 C 345.160156 285.542969 343.535156 288.109375 341.847656 290.636719 C 340.160156 293.160156 338.414062 295.644531 336.601562 298.085938 C 334.792969 300.523438 332.925781 302.917969 330.996094 305.265625 C 329.070312 307.613281 327.085938 309.914062 325.046875 312.164062 C 323.007812 314.417969 320.914062 316.617188 318.765625 318.765625 C 316.617188 320.914062 314.417969 323.007812 312.164062 325.046875 C 309.914062 327.085938 307.613281 329.070312 305.265625 330.996094 C 302.917969 332.925781 300.523438 334.792969 298.085938 336.601562 C 295.644531 338.414062 293.160156 340.160156 290.636719 341.847656 C 288.109375 343.535156 285.542969 345.160156 282.9375 346.722656 C 280.332031 348.285156 277.691406 349.78125 275.011719 351.214844 C 272.332031 352.644531 269.617188 354.011719 266.871094 355.308594 C 264.125 356.609375 261.351562 357.839844 258.542969 359.003906 C 255.738281 360.164062 252.902344 361.257812 250.042969 362.28125 C 247.183594 363.304688 244.296875 364.257812 241.390625 365.140625 C 238.484375 366.019531 235.558594 366.832031 232.609375 367.570312 C 229.664062 368.308594 226.699219 368.972656 223.722656 369.566406 C 220.742188 370.160156 217.75 370.675781 214.746094 371.125 C 211.738281 371.570312 208.726562 371.941406 205.703125 372.238281 C 202.679688 372.535156 199.648438 372.761719 196.617188 372.910156 C 193.582031 373.058594 190.546875 373.132812 187.507812 373.132812 C 184.46875 373.132812 181.433594 373.058594 178.398438 372.910156 C 175.363281 372.761719 172.335938 372.535156 169.3125 372.238281 C 166.289062 371.941406 163.277344 371.570312 160.269531 371.125 C 157.265625 370.675781 154.273438 370.160156 151.292969 369.566406 C 148.3125 368.972656 145.351562 368.308594 142.402344 367.570312 C 139.457031 366.832031 136.53125 366.019531 133.625 365.140625 C 130.714844 364.257812 127.832031 363.304688 124.972656 362.28125 C 122.113281 361.257812 119.277344 360.164062 116.472656 359.003906 C 113.664062 357.839844 110.890625 356.609375 108.144531 355.308594 C 105.394531 354.011719 102.683594 352.644531 100.003906 351.214844 C 97.324219 349.78125 94.683594 348.285156 92.078125 346.722656 C 89.472656 345.160156 86.90625 343.535156 84.378906 341.847656 C 81.855469 340.160156 79.371094 338.414062 76.929688 336.601562 C 74.492188 334.792969 72.097656 332.925781 69.75 330.996094 C 67.398438 329.070312 65.101562 327.085938 62.847656 325.046875 C 60.597656 323.007812 58.398438 320.914062 56.25 318.765625 C 54.101562 316.617188 52.007812 314.417969 49.96875 312.164062 C 47.929688 309.914062 45.945312 307.613281 44.015625 305.265625 C 42.089844 302.917969 40.222656 300.523438 38.414062 298.085938 C 36.601562 295.644531 34.855469 293.160156 33.164062 290.636719 C 31.476562 288.109375 29.851562 285.542969 28.292969 282.9375 C 26.730469 280.332031 25.234375 277.691406 23.800781 275.011719 C 22.367188 272.332031 21.003906 269.617188 19.703125 266.871094 C 18.40625 264.125 17.175781 261.351562 16.011719 258.542969 C 14.851562 255.738281 13.757812 252.902344 12.734375 250.042969 C 11.710938 247.183594 10.757812 244.296875 9.875 241.390625 C 8.992188 238.484375 8.183594 235.558594 7.445312 232.609375 C 6.707031 229.664062 6.042969 226.699219 5.449219 223.722656 C 4.855469 220.742188 4.335938 217.75 3.890625 214.746094 C 3.445312 211.738281 3.074219 208.726562 2.777344 205.703125 C 2.480469 202.679688 2.253906 199.648438 2.105469 196.617188 C 1.957031 193.582031 1.882812 190.546875 1.882812 187.507812 C 1.882812 184.46875 1.957031 181.433594 2.105469 178.398438 C 2.253906 175.363281 2.480469 172.335938 2.777344 169.3125 C 3.074219 166.289062 3.445312 163.277344 3.890625 160.269531 C 4.335938 157.265625 4.855469 154.273438 5.449219 151.292969 C 6.042969 148.3125 6.707031 145.351562 7.445312 142.40625 C 8.183594 139.457031 8.992188 136.53125 9.875 133.625 C 10.757812 130.714844 11.710938 127.832031 12.734375 124.972656 C 13.757812 122.113281 14.851562 119.277344 16.011719 116.472656 C 17.175781 113.664062 18.40625 110.890625 19.703125 108.144531 C 21.003906 105.394531 22.367188 102.683594 23.800781 100.003906 C 25.234375 97.324219 26.730469 94.683594 28.292969 92.078125 C 29.851562 89.472656 31.476562 86.90625 33.164062 84.378906 C 34.855469 81.855469 36.601562 79.371094 38.414062 76.929688 C 40.222656 74.492188 42.089844 72.097656 44.015625 69.75 C 45.945312 67.398438 47.929688 65.101562 49.96875 62.847656 C 52.007812 60.597656 54.101562 58.398438 56.25 56.25 C 58.398438 54.101562 60.597656 52.007812 62.847656 49.96875 C 65.101562 47.929688 67.398438 45.945312 69.75 44.015625 C 72.097656 42.089844 74.492188 40.222656 76.929688 38.414062 C 79.371094 36.601562 81.855469 34.855469 84.378906 33.164062 C 86.90625 31.476562 89.472656 29.851562 92.078125 28.292969 C 94.683594 26.730469 97.324219 25.234375 100.003906 23.800781 C 102.683594 22.367188 105.394531 21.003906 108.144531 19.703125 C 110.890625 18.40625 113.664062 17.175781 116.472656 16.011719 C 119.277344 14.851562 122.113281 13.757812 124.972656 12.734375 C 127.832031 11.710938 130.714844 10.757812 133.625 9.875 C 136.53125 8.992188 139.457031 8.183594 142.402344 7.445312 C 145.351562 6.707031 148.3125 6.042969 151.292969 5.449219 C 154.273438 4.855469 157.265625 4.335938 160.269531 3.890625 C 163.277344 3.445312 166.289062 3.074219 169.3125 2.777344 C 172.335938 2.480469 175.363281 2.253906 178.398438 2.105469 C 181.433594 1.957031 184.46875 1.882812 187.507812 1.882812 C 190.546875 1.882812 193.582031 1.957031 196.617188 2.105469 C 199.648438 2.253906 202.679688 2.480469 205.703125 2.777344 C 208.726562 3.074219 211.738281 3.445312 214.746094 3.890625 C 217.75 4.335938 220.742188 4.855469 223.722656 5.449219 C 226.699219 6.042969 229.664062 6.707031 232.609375 7.445312 C 235.558594 8.183594 238.484375 8.992188 241.390625 9.875 C 244.296875 10.757812 247.183594 11.710938 250.042969 12.734375 C 252.902344 13.757812 255.738281 14.851562 258.542969 16.011719 C 261.351562 17.175781 264.125 18.40625 266.871094 19.703125 C 269.617188 21.003906 272.332031 22.367188 275.011719 23.800781 C 277.691406 25.234375 280.332031 26.730469 282.9375 28.292969 C 285.542969 29.851562 288.109375 31.476562 290.636719 33.164062 C 293.160156 34.855469 295.644531 36.601562 298.085938 38.414062 C 300.523438 40.222656 302.917969 42.089844 305.265625 44.015625 C 307.613281 45.945312 309.914062 47.929688 312.164062 49.96875 C 314.417969 52.007812 316.617188 54.101562 318.765625 56.25 C 320.914062 58.398438 323.007812 60.597656 325.046875 62.847656 C 327.085938 65.101562 329.070312 67.398438 330.996094 69.75 C 332.925781 72.097656 334.792969 74.492188 336.601562 76.929688 C 338.414062 79.371094 340.160156 81.855469 341.847656 84.378906 C 343.535156 86.90625 345.160156 89.472656 346.722656 92.078125 C 348.285156 94.683594 349.78125 97.324219 351.214844 100.003906 C 352.644531 102.683594 354.011719 105.394531 355.308594 108.144531 C 356.609375 110.890625 357.839844 113.664062 359.003906 116.472656 C 360.164062 119.277344 361.257812 122.113281 362.28125 124.972656 C 363.304688 127.832031 364.257812 130.714844 365.140625 133.625 C 366.019531 136.53125 366.832031 139.457031 367.570312 142.40625 C 368.308594 145.351562 368.972656 148.3125 369.566406 151.292969 C 370.160156 154.273438 370.675781 157.265625 371.125 160.269531 C 371.570312 163.277344 371.941406 166.289062 372.238281 169.3125 C 372.535156 172.335938 372.761719 175.363281 372.910156 178.398438 C 373.058594 181.433594 373.132812 184.46875 373.132812 187.507812 Z M 373.132812 187.507812 " fill-opacity="1" fill-rule="nonzero"/></g><path fill="#ffffff" d="M 288.738281 268.023438 C 291.800781 271.75 296.230469 273.679688 300.699219 273.679688 C 304.164062 273.679688 307.648438 272.519531 310.527344 270.144531 C 317.132812 264.703125 318.078125 254.933594 312.648438 248.320312 L 262.867188 187.734375 C 259.96875 184.210938 255.675781 182.144531 251.117188 182.082031 C 246.582031 181.976562 242.214844 183.972656 239.226562 187.417969 L 222.933594 206.199219 L 223.347656 250.859375 C 223.355469 251.636719 223.296875 252.402344 223.207031 253.160156 L 238.679688 235.328125 L 250.589844 221.597656 Z M 288.738281 268.023438 " fill-opacity="1" fill-rule="nonzero"/><g clip-path="url(#6b3be77629)"><path fill="#ffffff" d="M 211.765625 264.769531 C 216.96875 262.324219 220.558594 257.019531 220.5 250.882812 L 220.023438 199.652344 L 219.992188 196.167969 L 230.066406 193.625 L 237.074219 185.546875 C 240.558594 181.53125 245.550781 179.226562 250.769531 179.226562 L 251.1875 179.234375 C 256.144531 179.300781 260.828125 181.402344 264.222656 185.003906 L 284.582031 179.863281 C 292.710938 177.816406 297.636719 169.554688 295.585938 161.417969 C 293.539062 153.277344 285.292969 148.351562 277.167969 150.398438 L 201.003906 169.621094 C 200.875 169.65625 200.753906 169.703125 200.628906 169.738281 C 200.332031 169.820312 200.035156 169.90625 199.746094 170.007812 C 199.546875 170.078125 199.347656 170.15625 199.152344 170.234375 C 198.890625 170.335938 198.636719 170.441406 198.382812 170.554688 C 198.160156 170.65625 197.945312 170.765625 197.730469 170.878906 C 197.515625 170.988281 197.308594 171.101562 197.101562 171.222656 C 196.863281 171.359375 196.636719 171.503906 196.410156 171.648438 C 196.234375 171.765625 196.058594 171.882812 195.886719 172.007812 C 195.65625 172.171875 195.429688 172.347656 195.207031 172.527344 C 195.050781 172.652344 194.894531 172.78125 194.746094 172.914062 C 194.53125 173.101562 194.324219 173.292969 194.121094 173.488281 C 193.972656 173.636719 193.824219 173.785156 193.679688 173.9375 C 193.5 174.132812 193.324219 174.332031 193.152344 174.535156 C 193 174.710938 192.855469 174.890625 192.714844 175.074219 C 192.566406 175.265625 192.425781 175.460938 192.285156 175.65625 C 192.140625 175.867188 191.996094 176.082031 191.859375 176.300781 C 191.742188 176.484375 191.632812 176.671875 191.523438 176.867188 C 191.386719 177.101562 191.257812 177.34375 191.136719 177.585938 C 191.042969 177.777344 190.953125 177.96875 190.867188 178.164062 C 190.757812 178.414062 190.648438 178.667969 190.550781 178.925781 C 190.472656 179.132812 190.398438 179.34375 190.328125 179.554688 C 190.246094 179.800781 190.167969 180.046875 190.097656 180.296875 C 190.03125 180.539062 189.972656 180.785156 189.917969 181.03125 C 189.867188 181.257812 189.820312 181.480469 189.78125 181.707031 C 189.730469 181.996094 189.6875 182.285156 189.65625 182.578125 C 189.632812 182.773438 189.609375 182.96875 189.59375 183.167969 C 189.570312 183.492188 189.558594 183.8125 189.554688 184.140625 C 189.554688 184.261719 189.539062 184.378906 189.539062 184.5 L 189.933594 226.863281 C 171.703125 230.023438 151.503906 228.59375 136.769531 228.113281 C 136.546875 228.085938 136.324219 228.070312 136.105469 228.046875 C 136.574219 223.785156 137.03125 218.863281 137.320312 213.847656 C 138.355469 195.949219 137.652344 178.839844 125.648438 174.871094 C 115.230469 171.429688 106.839844 181.726562 104.082031 185.109375 C 102.683594 186.824219 101.222656 188.777344 99.703125 190.976562 C 106.566406 191.886719 112.835938 195.066406 117.613281 199.996094 C 117.660156 199.9375 117.707031 199.871094 117.75 199.8125 C 117.753906 199.917969 117.753906 200.035156 117.757812 200.144531 C 119.207031 201.660156 120.519531 203.328125 121.660156 205.152344 C 126.011719 212.117188 127.394531 220.363281 125.554688 228.371094 C 123.714844 236.378906 118.867188 243.183594 111.914062 247.546875 C 109.308594 249.175781 106.492188 250.386719 103.566406 251.171875 C 100.339844 255.144531 97.101562 258.914062 94.113281 262.183594 C 95.019531 259.34375 96.15625 256.023438 97.558594 252.164062 C 96.921875 252.203125 96.289062 252.230469 95.648438 252.230469 C 89.347656 252.230469 83.378906 250.335938 78.375 246.929688 C 75.269531 255.589844 73.136719 262.636719 71.917969 268.242188 C 70.851562 273.132812 68.027344 286.128906 77.375 291.402344 C 79.394531 292.539062 81.441406 293.078125 83.53125 293.078125 C 91.3125 293.078125 99.75 285.644531 110.101562 274.066406 C 112.96875 270.855469 115.703125 267.613281 118.066406 264.726562 C 122.265625 268.515625 128 271.496094 135.417969 272.777344 C 161.429688 277.101562 177.773438 276.285156 204.417969 268.707031 C 207.058594 267.730469 209.320312 266.621094 211.273438 265.410156 C 211.433594 265.320312 211.601562 265.234375 211.761719 265.140625 Z M 211.765625 264.769531 " fill-opacity="1" fill-rule="nonzero"/></g><path fill="#ffffff" d="M 119.242188 206.660156 C 119.726562 207.4375 120.171875 208.234375 120.578125 209.050781 C 120.984375 209.871094 121.347656 210.707031 121.671875 211.5625 C 121.996094 212.414062 122.277344 213.285156 122.515625 214.167969 C 122.753906 215.046875 122.949219 215.941406 123.101562 216.84375 C 123.25 217.742188 123.359375 218.648438 123.421875 219.5625 C 123.484375 220.472656 123.5 221.386719 123.472656 222.300781 C 123.445312 223.214844 123.375 224.125 123.257812 225.03125 C 123.140625 225.9375 122.980469 226.835938 122.773438 227.726562 C 122.570312 228.617188 122.320312 229.496094 122.03125 230.363281 C 121.742188 231.226562 121.40625 232.078125 121.035156 232.910156 C 120.660156 233.746094 120.246094 234.558594 119.789062 235.351562 C 119.335938 236.144531 118.84375 236.914062 118.316406 237.65625 C 117.785156 238.402344 117.222656 239.117188 116.621094 239.808594 C 116.019531 240.496094 115.390625 241.152344 114.726562 241.78125 C 114.058594 242.40625 113.367188 243 112.644531 243.558594 C 111.921875 244.117188 111.171875 244.636719 110.398438 245.125 C 109.625 245.609375 108.832031 246.054688 108.011719 246.460938 C 107.195312 246.867188 106.359375 247.230469 105.507812 247.554688 C 104.65625 247.878906 103.789062 248.164062 102.90625 248.402344 C 102.027344 248.640625 101.136719 248.835938 100.234375 248.988281 C 99.335938 249.136719 98.429688 249.246094 97.519531 249.308594 C 96.609375 249.371094 95.695312 249.386719 94.785156 249.359375 C 93.871094 249.332031 92.964844 249.261719 92.058594 249.144531 C 91.152344 249.027344 90.257812 248.867188 89.367188 248.660156 C 88.476562 248.457031 87.601562 248.207031 86.734375 247.917969 C 85.871094 247.625 85.023438 247.292969 84.191406 246.917969 C 83.355469 246.542969 82.546875 246.128906 81.753906 245.671875 C 80.960938 245.21875 80.195312 244.726562 79.453125 244.195312 C 78.707031 243.664062 77.992188 243.097656 77.304688 242.496094 C 76.617188 241.898438 75.960938 241.265625 75.335938 240.597656 C 74.707031 239.933594 74.117188 239.238281 73.558594 238.515625 C 73 237.792969 72.480469 237.042969 71.996094 236.265625 C 71.511719 235.492188 71.066406 234.695312 70.660156 233.878906 C 70.253906 233.058594 69.890625 232.222656 69.566406 231.367188 C 69.242188 230.511719 68.960938 229.644531 68.722656 228.761719 C 68.484375 227.878906 68.289062 226.988281 68.136719 226.085938 C 67.988281 225.1875 67.878906 224.277344 67.820312 223.367188 C 67.757812 222.457031 67.738281 221.542969 67.765625 220.628906 C 67.792969 219.714844 67.867188 218.804688 67.980469 217.898438 C 68.097656 216.992188 68.257812 216.09375 68.464844 215.203125 C 68.667969 214.3125 68.917969 213.433594 69.207031 212.566406 C 69.5 211.699219 69.832031 210.851562 70.207031 210.015625 C 70.578125 209.183594 70.996094 208.371094 71.449219 207.578125 C 71.902344 206.785156 72.394531 206.015625 72.925781 205.273438 C 73.453125 204.527344 74.019531 203.8125 74.617188 203.121094 C 75.21875 202.433594 75.851562 201.773438 76.515625 201.148438 C 77.179688 200.523438 77.871094 199.929688 78.59375 199.371094 C 79.316406 198.8125 80.066406 198.289062 80.839844 197.804688 C 81.613281 197.320312 82.40625 196.875 83.226562 196.46875 C 84.042969 196.0625 84.878906 195.695312 85.730469 195.371094 C 86.585938 195.046875 87.453125 194.765625 88.332031 194.527344 C 89.214844 194.289062 90.105469 194.09375 91.003906 193.941406 C 91.902344 193.789062 92.808594 193.683594 93.71875 193.621094 C 94.628906 193.558594 95.542969 193.542969 96.453125 193.570312 C 97.367188 193.597656 98.273438 193.667969 99.179688 193.785156 C 100.085938 193.902344 100.984375 194.0625 101.871094 194.269531 C 102.761719 194.472656 103.636719 194.722656 104.503906 195.011719 C 105.367188 195.304688 106.21875 195.636719 107.050781 196.011719 C 107.882812 196.386719 108.695312 196.800781 109.484375 197.257812 C 110.277344 197.710938 111.042969 198.203125 111.789062 198.734375 C 112.53125 199.265625 113.246094 199.832031 113.933594 200.429688 C 114.621094 201.03125 115.277344 201.664062 115.90625 202.332031 C 116.53125 202.996094 117.121094 203.691406 117.679688 204.414062 C 118.238281 205.136719 118.757812 205.886719 119.242188 206.660156 Z M 119.242188 206.660156 " fill-opacity="1" fill-rule="nonzero"/><g fill="#ffffff" fill-opacity="1"><g transform="translate(89.561811, 153.430565)"><g><path d="M 4.953125 0 C 2.941406 0 1.9375 -0.789062 1.9375 -2.375 C 1.9375 -2.957031 2.050781 -3.515625 2.28125 -4.046875 C 2.507812 -4.585938 2.898438 -5.28125 3.453125 -6.125 L 18.015625 -27.984375 L 5.59375 -27.984375 C 4.394531 -27.984375 3.523438 -28.273438 2.984375 -28.859375 C 2.453125 -29.441406 2.1875 -30.15625 2.1875 -31 C 2.1875 -31.832031 2.453125 -32.539062 2.984375 -33.125 C 3.523438 -33.707031 4.394531 -34 5.59375 -34 L 24.484375 -34 C 26.492188 -34 27.5 -33.207031 27.5 -31.625 C 27.5 -31.039062 27.382812 -30.476562 27.15625 -29.9375 C 26.925781 -29.40625 26.535156 -28.722656 25.984375 -27.890625 L 11.375 -6.03125 L 25.3125 -6.03125 C 26.507812 -6.03125 27.375 -5.738281 27.90625 -5.15625 C 28.4375 -4.570312 28.703125 -3.859375 28.703125 -3.015625 C 28.703125 -2.171875 28.4375 -1.457031 27.90625 -0.875 C 27.375 -0.289062 26.507812 0 25.3125 0 Z M 4.953125 0 "/></g></g></g><g fill="#ffffff" fill-opacity="1"><g transform="translate(126.508004, 126.225501)"><g><path d="M 6.109375 0 C 3.628906 0 2.390625 -0.976562 2.390625 -2.9375 C 2.390625 -3.65625 2.53125 -4.34375 2.8125 -5 C 3.09375 -5.65625 3.570312 -6.503906 4.25 -7.546875 L 22.21875 -34.5 L 6.890625 -34.5 C 5.410156 -34.5 4.34375 -34.859375 3.6875 -35.578125 C 3.03125 -36.296875 2.703125 -37.175781 2.703125 -38.21875 C 2.703125 -39.257812 3.03125 -40.140625 3.6875 -40.859375 C 4.34375 -41.578125 5.410156 -41.9375 6.890625 -41.9375 L 30.1875 -41.9375 C 32.664062 -41.9375 33.90625 -40.957031 33.90625 -39 C 33.90625 -38.28125 33.765625 -37.585938 33.484375 -36.921875 C 33.203125 -36.265625 32.722656 -35.421875 32.046875 -34.390625 L 14.015625 -7.421875 L 31.21875 -7.421875 C 32.6875 -7.421875 33.75 -7.0625 34.40625 -6.34375 C 35.070312 -5.625 35.40625 -4.75 35.40625 -3.71875 C 35.40625 -2.675781 35.070312 -1.796875 34.40625 -1.078125 C 33.75 -0.359375 32.6875 0 31.21875 0 Z M 6.109375 0 "/></g></g></g><g fill="#ffffff" fill-opacity="1"><g transform="translate(169.969901, 110.782741)"><g><path d="M 7.4375 0 C 4.425781 0 2.921875 -1.1875 2.921875 -3.5625 C 2.921875 -4.4375 3.085938 -5.273438 3.421875 -6.078125 C 3.765625 -6.878906 4.347656 -7.914062 5.171875 -9.1875 L 27.03125 -41.96875 L 8.375 -41.96875 C 6.582031 -41.96875 5.285156 -42.40625 4.484375 -43.28125 C 3.679688 -44.15625 3.28125 -45.222656 3.28125 -46.484375 C 3.28125 -47.742188 3.679688 -48.8125 4.484375 -49.6875 C 5.285156 -50.5625 6.582031 -51 8.375 -51 L 36.71875 -51 C 39.726562 -51 41.234375 -49.8125 41.234375 -47.4375 C 41.234375 -46.5625 41.0625 -45.722656 40.71875 -44.921875 C 40.382812 -44.117188 39.804688 -43.085938 38.984375 -41.828125 L 17.046875 -9.03125 L 37.953125 -9.03125 C 39.753906 -9.03125 41.054688 -8.59375 41.859375 -7.71875 C 42.660156 -6.84375 43.0625 -5.773438 43.0625 -4.515625 C 43.0625 -3.253906 42.660156 -2.1875 41.859375 -1.3125 C 41.054688 -0.4375 39.753906 0 37.953125 0 Z M 7.4375 0 "/></g></g></g></svg>